<svg width="132" height="132" viewBox="0 0 132 132" fill="none" xmlns="http://www.w3.org/2000/svg">
    <path d="M60.343 7.657a8 8 0 0 1 11.314 0l52.686 52.686a8 8 0 0 1 0 11.314l-52.686 52.686a8 8 0 0 1-11.314 0L7.657 71.657a8 8 0 0 1 0-11.314L60.343 7.657z" stroke="#000" stroke-width="10"/>
    <mask id="hahfkc485a" maskUnits="userSpaceOnUse" x="34.2" y="51" width="67" height="33" fill="#000">
        <path fill="#fff" d="M34.2 51h67v33h-67z"/>
        <path d="M35.2 82V52.4h3.92V82H35.2zM45.513 82V52.4h5.16l8.72 17.6 8.68-17.6h5.16V82h-3.84V58.16l-8.16 16.24h-3.72l-8.16-16.32V82h-3.84zM89.534 82.4c-1.707 0-3.173-.213-4.4-.64-1.2-.453-2.2-1.027-3-1.72-.8-.72-1.44-1.467-1.92-2.24-.48-.773-.84-1.507-1.08-2.2-.24-.72-.4-1.293-.48-1.72l-.08-.68h4l.12.56c.08.373.24.84.48 1.4.267.56.653 1.133 1.16 1.72.507.56 1.187 1.027 2.04 1.4s1.933.56 3.24.56c1.973 0 3.533-.467 4.68-1.4 1.147-.96 1.72-2.2 1.72-3.72 0-1.307-.44-2.32-1.32-3.04-.853-.72-2.08-1.28-3.68-1.68l-3.92-.96a18.186 18.186 0 0 1-3.88-1.44c-1.173-.64-2.12-1.467-2.84-2.48-.693-1.04-1.04-2.333-1.04-3.88 0-1.733.427-3.213 1.28-4.44.853-1.227 2.013-2.16 3.48-2.8 1.467-.667 3.133-1 5-1 1.813 0 3.32.28 4.52.84 1.2.56 2.16 1.253 2.88 2.08.72.8 1.253 1.613 1.6 2.44.347.8.573 1.48.68 2.04l.16.84h-3.84l-.16-.72c-.107-.48-.36-1.027-.76-1.64-.4-.64-1.013-1.2-1.84-1.68-.827-.48-1.947-.72-3.36-.72-1.92 0-3.373.453-4.36 1.36-.96.907-1.44 1.947-1.44 3.12 0 1.067.387 1.933 1.16 2.6.773.64 1.84 1.133 3.2 1.48l4.24 1.04c1.52.373 2.893.92 4.12 1.64 1.227.693 2.2 1.6 2.92 2.72.72 1.093 1.08 2.44 1.08 4.04s-.4 3.08-1.2 4.44c-.773 1.36-1.933 2.453-3.48 3.28-1.52.8-3.413 1.2-5.68 1.2z"/>
    </mask>
    <path d="M35.2 82V52.4h3.92V82H35.2zM45.513 82V52.4h5.16l8.72 17.6 8.68-17.6h5.16V82h-3.84V58.16l-8.16 16.24h-3.72l-8.16-16.32V82h-3.84zM89.534 82.4c-1.707 0-3.173-.213-4.4-.64-1.2-.453-2.2-1.027-3-1.72-.8-.72-1.44-1.467-1.92-2.24-.48-.773-.84-1.507-1.08-2.2-.24-.72-.4-1.293-.48-1.72l-.08-.68h4l.12.56c.08.373.24.84.48 1.4.267.56.653 1.133 1.16 1.72.507.56 1.187 1.027 2.04 1.4s1.933.56 3.24.56c1.973 0 3.533-.467 4.68-1.4 1.147-.96 1.72-2.2 1.72-3.72 0-1.307-.44-2.32-1.32-3.04-.853-.72-2.08-1.28-3.68-1.68l-3.92-.96a18.186 18.186 0 0 1-3.88-1.44c-1.173-.64-2.12-1.467-2.84-2.48-.693-1.04-1.04-2.333-1.04-3.88 0-1.733.427-3.213 1.28-4.44.853-1.227 2.013-2.16 3.48-2.8 1.467-.667 3.133-1 5-1 1.813 0 3.32.28 4.52.84 1.2.56 2.16 1.253 2.88 2.08.72.8 1.253 1.613 1.6 2.44.347.8.573 1.48.68 2.04l.16.84h-3.84l-.16-.72c-.107-.48-.36-1.027-.76-1.64-.4-.64-1.013-1.2-1.84-1.68-.827-.48-1.947-.72-3.36-.72-1.92 0-3.373.453-4.36 1.36-.96.907-1.44 1.947-1.44 3.12 0 1.067.387 1.933 1.16 2.6.773.64 1.84 1.133 3.2 1.48l4.24 1.04c1.52.373 2.893.92 4.12 1.64 1.227.693 2.2 1.6 2.92 2.72.72 1.093 1.08 2.44 1.08 4.04s-.4 3.08-1.2 4.44c-.773 1.36-1.933 2.453-3.48 3.28-1.52.8-3.413 1.2-5.68 1.2z" fill="#000"/>
    <path d="M35.2 82h-1v1h1v-1zm0-29.6v-1h-1v1h1zm3.92 0h1v-1h-1v1zm0 29.6v1h1v-1h-1zm6.393 0h-1v1h1v-1zm0-29.6v-1h-1v1h1zm5.16 0 .896-.444-.276-.556h-.62v1zm8.72 17.6-.897.444.899 1.813.894-1.815-.897-.442zm8.68-17.6v-1h-.622l-.275.558.897.442zm5.16 0h1v-1h-1v1zm0 29.6v1h1v-1h-1zm-3.84 0h-1v1h1v-1zm0-23.84h1l-1.894-.449.894.449zm-8.16 16.24v1h.616l.277-.551-.893-.449zm-3.72 0-.895.447.276.553h.619v-1zm-8.16-16.32.894-.447-1.895.447h1zm0 23.92v1h1v-1h-1zm35.781-.24-.353.935.012.005.012.004.33-.944zm-3-1.72-.669.743.007.007.007.006.655-.756zm-3-4.44-.949.316.004.011.945-.327zm-.48-1.72-.993.117.004.034.006.033.983-.184zm-.08-.68v-1H77.45l.13 1.117.994-.117zm4 0 .978-.21-.17-.79h-.808v1zm.12.56-.978.21.978-.21zm.48 1.4-.92.394.009.018.008.018.903-.43zm1.16 1.72-.757.654.008.008.008.009.741-.671zm2.04 1.4-.4.916.4-.916zm7.92-.84.631.776.011-.01-.642-.766zm.4-6.76-.645.764.006.005.006.005.633-.774zM91.014 69l.243-.97-.005-.001-.238.971zm-3.92-.96-.242.97.004.001.238-.971zm-3.88-1.44-.479.878.012.006.012.006.455-.89zm-2.84-2.48-.832.555.008.012.009.012.815-.579zm.24-8.32-.82-.571.82.571zm3.48-2.8.4.916.007-.002.007-.004-.414-.91zm9.52-.16-.423.906.423-.906zm2.88 2.08-.754.657.005.006.006.006.743-.669zm1.6 2.44-.922.387.005.01.917-.397zm.68 2.04-.982.187.982-.187zm.16.84v1h1.209l-.227-1.187-.982.187zm-3.84 0-.976.217.174.783h.802v-1zm-.16-.72.976-.217-.976.217zm-.76-1.64-.848.53.005.008.005.008.838-.546zm-1.84-1.68.502-.865-.502.865zm-7.72.64-.677-.736-.01.009.687.727zm-.28 5.72-.653.757.008.007.008.006.637-.77zm3.2 1.48-.247.97.009.001.238-.971zm4.24 1.04.239-.971-.239.971zm4.12 1.64-.506.862.007.005.007.004.492-.871zm2.92 2.72-.841.54.006.01.835-.55zm-.12 8.48-.862-.507-.004.006-.003.007.87.494zm-3.48 3.28.466.885.005-.003-.47-.882zM36.2 82V52.4h-2V82h2zm-1-28.6h3.92v-2H35.2v2zm2.92-1V82h2V52.4h-2zm1 28.6H35.2v2h3.92v-2zm7.393 1V52.4h-2V82h2zm-1-28.6h5.16v-2h-5.16v2zm4.264-.556 8.72 17.6 1.792-.888-8.72-17.6-1.793.888zm10.512 17.598 8.68-17.6-1.793-.884-8.68 17.6 1.793.884zM68.073 53.4h5.16v-2h-5.16v2zm4.16-1V82h2V52.4h-2zm1 28.6h-3.84v2h3.84v-2zm-2.84 1V58.16h-2V82h2zm-1.894-24.289-8.16 16.24 1.787.898 8.16-16.24-1.787-.898zM61.233 73.4h-3.72v2h3.72v-2zm-2.826.553-8.16-16.32-1.789.894 8.16 16.32 1.789-.894zM48.353 58.08V82h2V58.08h-2zm1 22.92h-3.84v2h3.84v-2zm40.181.4c-1.628 0-2.978-.204-4.071-.585l-.657 1.89c1.36.472 2.943.695 4.728.695v-2zm-4.047-.576c-1.112-.42-2.004-.938-2.698-1.54l-1.31 1.512c.906.785 2.014 1.413 3.302 1.9l.706-1.871zm-2.684-1.527c-.742-.668-1.317-1.344-1.74-2.024l-1.699 1.054c.538.867 1.243 1.684 2.101 2.456l1.338-1.486zm-1.74-2.024c-.45-.725-.773-1.391-.984-2l-1.89.654c.27.778.665 1.578 1.175 2.4l1.7-1.054zm-.98-1.99c-.235-.703-.378-1.226-.446-1.587l-1.966.368c.092.493.269 1.116.514 1.852l1.898-.632zm-.436-1.52a1462.757 1462.757 0 0 1-.08-.677v-.002l-.993.116-.993.117v.003l.001.008a4.398 4.398 0 0 0 .019.159l.06.51 1.986-.234zm-1.073.437h4v-2h-4v2zm4-1-.978.21v.002l.002.006a3.858 3.858 0 0 1 .028.131l.09.42 1.956-.418a4280.265 4280.265 0 0 0-.118-.552l-.002-.006v-.002l-.978.209zm-.858.77c.1.462.287.995.539 1.584l1.838-.788c-.227-.531-.36-.931-.421-1.216l-1.956.42zm.555 1.62c.314.658.755 1.305 1.306 1.944l1.514-1.308c-.462-.535-.794-1.034-1.014-1.496l-1.806.86zm1.322 1.96c.62.687 1.427 1.229 2.38 1.646l.802-1.832c-.753-.33-1.307-.721-1.7-1.155l-1.483 1.342zm2.38 1.646c1.02.446 2.248.644 3.641.644v-2c-1.22 0-2.152-.176-2.84-.476l-.8 1.832zm3.641.644c2.126 0 3.934-.504 5.311-1.624l-1.262-1.552c-.917.746-2.228 1.176-4.049 1.176v2zm5.322-1.633c1.378-1.154 2.078-2.677 2.078-4.487h-2c0 1.23-.446 2.187-1.362 2.953l1.284 1.534zm2.078-4.487c0-1.556-.538-2.874-1.687-3.814l-1.266 1.548c.611.5.953 1.21.953 2.266h2zm-1.675-3.804c-1.012-.854-2.4-1.465-4.082-1.886l-.486 1.94c1.517.38 2.584.888 3.278 1.474l1.29-1.528zm-4.087-1.887-3.92-.96-.476 1.942 3.92.96.476-1.942zm-3.915-.96a17.186 17.186 0 0 1-3.668-1.36l-.91 1.781a19.18 19.18 0 0 0 4.093 1.52l.485-1.94zm-3.644-1.347c-1.05-.573-1.878-1.3-2.504-2.181l-1.63 1.158c.814 1.147 1.88 2.072 3.176 2.779l.958-1.756zm-2.487-2.157c-.56-.84-.872-1.929-.872-3.325h-2c0 1.697.382 3.195 1.208 4.435l1.664-1.11zm-.872-3.325c0-1.563.382-2.836 1.101-3.869l-1.642-1.142c-.988 1.42-1.459 3.107-1.459 5.011h2zm1.101-3.869c.74-1.064 1.75-1.883 3.059-2.455l-.8-1.832c-1.624.708-2.934 1.756-3.9 3.145l1.641 1.142zm3.073-2.46c1.318-.6 2.84-.911 4.586-.911v-2c-1.987 0-3.798.355-5.414 1.09l.828 1.82zM89.094 53c1.718 0 3.069.266 4.097.746l.846-1.812c-1.372-.64-3.034-.934-4.943-.934v2zm4.097.746c1.1.513 1.938 1.129 2.549 1.83l1.508-1.313c-.829-.951-1.91-1.722-3.211-2.33l-.846 1.813zm2.56 1.843c.66.733 1.125 1.453 1.42 2.158l1.845-.774c-.398-.948-.998-1.855-1.779-2.722l-1.486 1.338zm1.425 2.169c.332.764.528 1.369.616 1.83l1.964-.375c-.125-.66-.382-1.415-.744-2.25l-1.835.795zm.616 1.83a1017.65 1017.65 0 0 1 .16.836v.003l.982-.187.982-.187v-.003l-.002-.01a9.465 9.465 0 0 1-.038-.197l-.12-.63-1.964.374zm1.142-.348h-3.84v2h3.84v-2zm-3.84 1 .976-.217v-.003a3.023 3.023 0 0 0-.01-.042l-.03-.135-.12-.54-1.952.434a1523.796 1523.796 0 0 0 .157.709l.002.008v.002l.977-.216zm.816-.937c-.142-.64-.462-1.3-.898-1.97l-1.675 1.093c.363.557.55.99.62 1.31l1.953-.433zm-.888-1.953c-.506-.81-1.255-1.474-2.186-2.015l-1.004 1.73c.722.42 1.2.875 1.494 1.345l1.696-1.06zm-2.186-2.015c-1.035-.6-2.35-.855-3.862-.855v2c1.316 0 2.24.226 2.858.585l1.004-1.73zm-3.862-.855c-2.063 0-3.799.486-5.037 1.624l1.354 1.472c.735-.676 1.906-1.096 3.683-1.096v-2zm-5.047 1.633c-1.132 1.07-1.753 2.363-1.753 3.847h2c0-.862.34-1.65 1.127-2.393l-1.374-1.454zm-1.753 3.847c0 1.343.502 2.491 1.507 3.357l1.306-1.514c-.542-.468-.813-1.052-.813-1.843h-2zm1.522 3.37c.924.764 2.141 1.31 3.591 1.679l.494-1.938c-1.27-.324-2.186-.765-2.81-1.281l-1.275 1.54zm3.6 1.681 4.24 1.04.476-1.942-4.24-1.04-.476 1.942zm4.24 1.04c1.435.353 2.717.865 3.852 1.531l1.012-1.724c-1.318-.774-2.783-1.355-4.387-1.75l-.478 1.943zm3.866 1.54c1.094.618 1.944 1.414 2.57 2.39l1.683-1.082c-.813-1.264-1.91-2.281-3.269-3.05l-.984 1.742zm2.577 2.399c.59.897.915 2.042.915 3.49h2c0-1.752-.395-3.3-1.245-4.59l-1.67 1.1zm.915 3.49a7.602 7.602 0 0 1-1.062 3.933l1.724 1.014a9.599 9.599 0 0 0 1.338-4.947h-2zm-1.07 3.946c-.668 1.176-1.68 2.143-3.081 2.892l.942 1.764c1.693-.905 3-2.124 3.878-3.668l-1.738-.988zm-3.076 2.89c-1.338.703-3.06 1.084-5.214 1.084v2c2.38 0 4.444-.42 6.146-1.315l-.932-1.77z" fill="#000" mask="url(#hahfkc485a)"/>
</svg>
